<svg width="40" height="20" viewBox="0 0 40 20" fill="none" xmlns="http://www.w3.org/2000/svg">
<path d="M38.9312 0.422022C39.3813 2.07217 38.659 3.34267 37.8416 4.42673C36.6846 5.91956 35.3551 7.30469 33.9306 8.5034C27.2238 13.8535 19.476 15.8576 11.0029 14.9813C8.8494 14.7508 6.69337 14.2083 4.30414 13.7458C4.77462 15.9732 6.56574 17.6426 7.17692 19.9155C6.16293 19.8466 5.70531 19.1796 5.31106 18.6369C3.70239 16.4041 2.10893 14.1243 0.577566 11.8128C-0.148821 10.6957 -0.0449579 10.055 1.07289 9.48318C3.38588 8.26093 5.84599 7.86446 8.39112 8.32552C8.48491 8.3559 8.58 8.54231 8.75367 8.80605C7.58401 10.6579 5.15666 9.35312 3.65614 10.7866C6.64883 12.5857 9.92655 13.0246 13.2017 13.1515C16.6328 13.2769 20.0143 13.0751 23.2957 12.0627C26.515 11.082 29.3704 9.4648 32.1611 7.56726C34.9836 5.73186 37.1621 3.3248 38.9312 0.422022Z" fill="white"/>
</svg>
